<svg xmlns="http://www.w3.org/2000/svg" version="1.1" xmlns:xlink="http://www.w3.org/1999/xlink" xmlns:svgjs="http://svgjs.com/svgjs" width="1440" height="1000" preserveAspectRatio="none" viewBox="0 0 1440 1000"><g mask="url(&quot;#SvgjsMask4162&quot;)" fill="none"><rect width="1440" height="1000" x="0" y="0" fill="url(#SvgjsLinearGradient4163)"></rect><use xlink:href="#SvgjsSymbol4170" x="0" y="0"></use><use xlink:href="#SvgjsSymbol4170" x="0" y="720"></use><use xlink:href="#SvgjsSymbol4170" x="720" y="0"></use><use xlink:href="#SvgjsSymbol4170" x="720" y="720"></use></g><defs><mask id="SvgjsMask4162"><rect width="1440" height="1000" fill="#ffffff"></rect></mask><linearGradient x1="7.64%" y1="-11%" x2="92.36%" y2="111%" gradientUnits="userSpaceOnUse" id="SvgjsLinearGradient4163"><stop stop-color="rgba(255, 2, 150, 1)" offset="0.24"></stop><stop stop-color="rgba(14, 162, 213, 1)" offset="1"></stop></linearGradient><path d="M-1 0 a1 1 0 1 0 2 0 a1 1 0 1 0 -2 0z" id="SvgjsPath4164"></path><path d="M-3 0 a3 3 0 1 0 6 0 a3 3 0 1 0 -6 0z" id="SvgjsPath4167"></path><path d="M-5 0 a5 5 0 1 0 10 0 a5 5 0 1 0 -10 0z" id="SvgjsPath4165"></path><path d="M2 -2 L-2 2z" id="SvgjsPath4168"></path><path d="M6 -6 L-6 6z" id="SvgjsPath4166"></path><path d="M30 -30 L-30 30z" id="SvgjsPath4169"></path></defs><symbol id="SvgjsSymbol4170"><use xlink:href="#SvgjsPath4164" x="30" y="30" stroke="rgba(200, 197, 197, 1)"></use><use xlink:href="#SvgjsPath4165" x="30" y="90" stroke="rgba(200, 197, 197, 1)"></use><use xlink:href="#SvgjsPath4165" x="30" y="150" stroke="rgba(200, 197, 197, 1)"></use><use xlink:href="#SvgjsPath4165" x="30" y="210" stroke="rgba(200, 197, 197, 1)"></use><use xlink:href="#SvgjsPath4166" x="30" y="270" stroke="rgba(200, 197, 197, 1)"></use><use xlink:href="#SvgjsPath4165" x="30" y="330" stroke="rgba(200, 197, 197, 1)"></use><use xlink:href="#SvgjsPath4165" x="30" y="390" stroke="rgba(200, 197, 197, 1)"></use><use xlink:href="#SvgjsPath4165" x="30" y="450" stroke="rgba(200, 197, 197, 1)"></use><use xlink:href="#SvgjsPath4167" x="30" y="510" stroke="rgba(200, 197, 197, 1)"></use><use xlink:href="#SvgjsPath4165" x="30" y="570" stroke="rgba(200, 197, 197, 1)"></use><use xlink:href="#SvgjsPath4168" x="30" y="630" stroke="rgba(200, 197, 197, 1)"></use><use xlink:href="#SvgjsPath4165" x="30" y="690" stroke="rgba(200, 197, 197, 1)"></use><use xlink:href="#SvgjsPath4166" x="90" y="30" stroke="rgba(200, 197, 197, 1)"></use><use xlink:href="#SvgjsPath4166" x="90" y="90" stroke="rgba(200, 197, 197, 1)"></use><use xlink:href="#SvgjsPath4166" x="90" y="150" stroke="rgba(200, 197, 197, 1)"></use><use xlink:href="#SvgjsPath4165" x="90" y="210" stroke="rgba(200, 197, 197, 1)"></use><use xlink:href="#SvgjsPath4165" x="90" y="270" stroke="rgba(200, 197, 197, 1)"></use><use xlink:href="#SvgjsPath4164" x="90" y="330" stroke="rgba(200, 197, 197, 1)"></use><use xlink:href="#SvgjsPath4165" x="90" y="390" stroke="rgba(200, 197, 197, 1)"></use><use xlink:href="#SvgjsPath4166" x="90" y="450" stroke="rgba(200, 197, 197, 1)"></use><use xlink:href="#SvgjsPath4165" x="90" y="510" stroke="rgba(200, 197, 197, 1)"></use><use xlink:href="#SvgjsPath4165" x="90" y="570" stroke="rgba(200, 197, 197, 1)"></use><use xlink:href="#SvgjsPath4166" x="90" y="630" stroke="rgba(200, 197, 197, 1)"></use><use xlink:href="#SvgjsPath4169" x="90" y="690" stroke="rgba(200, 197, 197, 1)" stroke-width="3"></use><use xlink:href="#SvgjsPath4168" x="150" y="30" stroke="rgba(200, 197, 197, 1)"></use><use xlink:href="#SvgjsPath4165" x="150" y="90" stroke="rgba(200, 197, 197, 1)"></use><use xlink:href="#SvgjsPath4167" x="150" y="150" stroke="rgba(200, 197, 197, 1)"></use><use xlink:href="#SvgjsPath4167" x="150" y="210" stroke="rgba(200, 197, 197, 1)"></use><use xlink:href="#SvgjsPath4165" x="150" y="270" stroke="rgba(200, 197, 197, 1)"></use><use xlink:href="#SvgjsPath4169" x="150" y="330" stroke="rgba(200, 197, 197, 1)" stroke-width="3"></use><use xlink:href="#SvgjsPath4165" x="150" y="390" stroke="rgba(200, 197, 197, 1)"></use><use xlink:href="#SvgjsPath4165" x="150" y="450" stroke="rgba(200, 197, 197, 1)"></use><use xlink:href="#SvgjsPath4169" x="150" y="510" stroke="rgba(200, 197, 197, 1)" stroke-width="3"></use><use xlink:href="#SvgjsPath4168" x="150" y="570" stroke="rgba(200, 197, 197, 1)"></use><use xlink:href="#SvgjsPath4165" x="150" y="630" stroke="rgba(200, 197, 197, 1)"></use><use xlink:href="#SvgjsPath4166" x="150" y="690" stroke="rgba(200, 197, 197, 1)"></use><use xlink:href="#SvgjsPath4166" x="210" y="30" stroke="rgba(200, 197, 197, 1)"></use><use xlink:href="#SvgjsPath4168" x="210" y="90" stroke="rgba(200, 197, 197, 1)"></use><use xlink:href="#SvgjsPath4168" x="210" y="150" stroke="rgba(200, 197, 197, 1)"></use><use xlink:href="#SvgjsPath4168" x="210" y="210" stroke="rgba(200, 197, 197, 1)"></use><use xlink:href="#SvgjsPath4167" x="210" y="270" stroke="rgba(200, 197, 197, 1)"></use><use xlink:href="#SvgjsPath4165" x="210" y="330" stroke="rgba(200, 197, 197, 1)"></use><use xlink:href="#SvgjsPath4167" x="210" y="390" stroke="rgba(200, 197, 197, 1)"></use><use xlink:href="#SvgjsPath4168" x="210" y="450" stroke="rgba(200, 197, 197, 1)"></use><use xlink:href="#SvgjsPath4168" x="210" y="510" stroke="rgba(200, 197, 197, 1)"></use><use xlink:href="#SvgjsPath4164" x="210" y="570" stroke="rgba(200, 197, 197, 1)"></use><use xlink:href="#SvgjsPath4168" x="210" y="630" stroke="rgba(200, 197, 197, 1)"></use><use xlink:href="#SvgjsPath4165" x="210" y="690" stroke="rgba(200, 197, 197, 1)"></use><use xlink:href="#SvgjsPath4166" x="270" y="30" stroke="rgba(200, 197, 197, 1)"></use><use xlink:href="#SvgjsPath4166" x="270" y="90" stroke="rgba(200, 197, 197, 1)"></use><use xlink:href="#SvgjsPath4168" x="270" y="150" stroke="rgba(200, 197, 197, 1)"></use><use xlink:href="#SvgjsPath4165" x="270" y="210" stroke="rgba(200, 197, 197, 1)"></use><use xlink:href="#SvgjsPath4164" x="270" y="270" stroke="rgba(200, 197, 197, 1)"></use><use xlink:href="#SvgjsPath4166" x="270" y="330" stroke="rgba(200, 197, 197, 1)"></use><use xlink:href="#SvgjsPath4165" x="270" y="390" stroke="rgba(200, 197, 197, 1)"></use><use xlink:href="#SvgjsPath4164" x="270" y="450" stroke="rgba(200, 197, 197, 1)"></use><use xlink:href="#SvgjsPath4166" x="270" y="510" stroke="rgba(200, 197, 197, 1)"></use><use xlink:href="#SvgjsPath4166" x="270" y="570" stroke="rgba(200, 197, 197, 1)"></use><use xlink:href="#SvgjsPath4167" x="270" y="630" stroke="rgba(200, 197, 197, 1)"></use><use xlink:href="#SvgjsPath4165" x="270" y="690" stroke="rgba(200, 197, 197, 1)"></use><use xlink:href="#SvgjsPath4166" x="330" y="30" stroke="rgba(200, 197, 197, 1)"></use><use xlink:href="#SvgjsPath4164" x="330" y="90" stroke="rgba(200, 197, 197, 1)"></use><use xlink:href="#SvgjsPath4166" x="330" y="150" stroke="rgba(200, 197, 197, 1)"></use><use xlink:href="#SvgjsPath4165" x="330" y="210" stroke="rgba(200, 197, 197, 1)"></use><use xlink:href="#SvgjsPath4168" x="330" y="270" stroke="rgba(200, 197, 197, 1)"></use><use xlink:href="#SvgjsPath4167" x="330" y="330" stroke="rgba(200, 197, 197, 1)"></use><use xlink:href="#SvgjsPath4166" x="330" y="390" stroke="rgba(200, 197, 197, 1)"></use><use xlink:href="#SvgjsPath4168" x="330" y="450" stroke="rgba(200, 197, 197, 1)"></use><use xlink:href="#SvgjsPath4169" x="330" y="510" stroke="rgba(200, 197, 197, 1)" stroke-width="3"></use><use xlink:href="#SvgjsPath4166" x="330" y="570" stroke="rgba(200, 197, 197, 1)"></use><use xlink:href="#SvgjsPath4168" x="330" y="630" stroke="rgba(200, 197, 197, 1)"></use><use xlink:href="#SvgjsPath4166" x="330" y="690" stroke="rgba(200, 197, 197, 1)"></use><use xlink:href="#SvgjsPath4168" x="390" y="30" stroke="rgba(200, 197, 197, 1)"></use><use xlink:href="#SvgjsPath4168" x="390" y="90" stroke="rgba(200, 197, 197, 1)"></use><use xlink:href="#SvgjsPath4166" x="390" y="150" stroke="rgba(200, 197, 197, 1)"></use><use xlink:href="#SvgjsPath4164" x="390" y="210" stroke="rgba(200, 197, 197, 1)"></use><use xlink:href="#SvgjsPath4166" x="390" y="270" stroke="rgba(200, 197, 197, 1)"></use><use xlink:href="#SvgjsPath4169" x="390" y="330" stroke="rgba(200, 197, 197, 1)" stroke-width="3"></use><use xlink:href="#SvgjsPath4168" x="390" y="390" stroke="rgba(200, 197, 197, 1)"></use><use xlink:href="#SvgjsPath4168" x="390" y="450" stroke="rgba(200, 197, 197, 1)"></use><use xlink:href="#SvgjsPath4165" x="390" y="510" stroke="rgba(200, 197, 197, 1)"></use><use xlink:href="#SvgjsPath4164" x="390" y="570" stroke="rgba(200, 197, 197, 1)"></use><use xlink:href="#SvgjsPath4166" x="390" y="630" stroke="rgba(200, 197, 197, 1)"></use><use xlink:href="#SvgjsPath4165" x="390" y="690" stroke="rgba(200, 197, 197, 1)"></use><use xlink:href="#SvgjsPath4167" x="450" y="30" stroke="rgba(200, 197, 197, 1)"></use><use xlink:href="#SvgjsPath4166" x="450" y="90" stroke="rgba(200, 197, 197, 1)"></use><use xlink:href="#SvgjsPath4166" x="450" y="150" stroke="rgba(200, 197, 197, 1)"></use><use xlink:href="#SvgjsPath4166" x="450" y="210" stroke="rgba(200, 197, 197, 1)"></use><use xlink:href="#SvgjsPath4165" x="450" y="270" stroke="rgba(200, 197, 197, 1)"></use><use xlink:href="#SvgjsPath4166" x="450" y="330" stroke="rgba(200, 197, 197, 1)"></use><use xlink:href="#SvgjsPath4167" x="450" y="390" stroke="rgba(200, 197, 197, 1)"></use><use xlink:href="#SvgjsPath4166" x="450" y="450" stroke="rgba(200, 197, 197, 1)"></use><use xlink:href="#SvgjsPath4165" x="450" y="510" stroke="rgba(200, 197, 197, 1)"></use><use xlink:href="#SvgjsPath4164" x="450" y="570" stroke="rgba(200, 197, 197, 1)"></use><use xlink:href="#SvgjsPath4165" x="450" y="630" stroke="rgba(200, 197, 197, 1)"></use><use xlink:href="#SvgjsPath4165" x="450" y="690" stroke="rgba(200, 197, 197, 1)"></use><use xlink:href="#SvgjsPath4166" x="510" y="30" stroke="rgba(200, 197, 197, 1)"></use><use xlink:href="#SvgjsPath4168" x="510" y="90" stroke="rgba(200, 197, 197, 1)"></use><use xlink:href="#SvgjsPath4167" x="510" y="150" stroke="rgba(200, 197, 197, 1)"></use><use xlink:href="#SvgjsPath4168" x="510" y="210" stroke="rgba(200, 197, 197, 1)"></use><use xlink:href="#SvgjsPath4166" x="510" y="270" stroke="rgba(200, 197, 197, 1)"></use><use xlink:href="#SvgjsPath4167" x="510" y="330" stroke="rgba(200, 197, 197, 1)"></use><use xlink:href="#SvgjsPath4166" x="510" y="390" stroke="rgba(200, 197, 197, 1)"></use><use xlink:href="#SvgjsPath4166" x="510" y="450" stroke="rgba(200, 197, 197, 1)"></use><use xlink:href="#SvgjsPath4165" x="510" y="510" stroke="rgba(200, 197, 197, 1)"></use><use xlink:href="#SvgjsPath4167" x="510" y="570" stroke="rgba(200, 197, 197, 1)"></use><use xlink:href="#SvgjsPath4165" x="510" y="630" stroke="rgba(200, 197, 197, 1)"></use><use xlink:href="#SvgjsPath4166" x="510" y="690" stroke="rgba(200, 197, 197, 1)"></use><use xlink:href="#SvgjsPath4168" x="570" y="30" stroke="rgba(200, 197, 197, 1)"></use><use xlink:href="#SvgjsPath4165" x="570" y="90" stroke="rgba(200, 197, 197, 1)"></use><use xlink:href="#SvgjsPath4167" x="570" y="150" stroke="rgba(200, 197, 197, 1)"></use><use xlink:href="#SvgjsPath4166" x="570" y="210" stroke="rgba(200, 197, 197, 1)"></use><use xlink:href="#SvgjsPath4164" x="570" y="270" stroke="rgba(200, 197, 197, 1)"></use><use xlink:href="#SvgjsPath4164" x="570" y="330" stroke="rgba(200, 197, 197, 1)"></use><use xlink:href="#SvgjsPath4165" x="570" y="390" stroke="rgba(200, 197, 197, 1)"></use><use xlink:href="#SvgjsPath4165" x="570" y="450" stroke="rgba(200, 197, 197, 1)"></use><use xlink:href="#SvgjsPath4164" x="570" y="510" stroke="rgba(200, 197, 197, 1)"></use><use xlink:href="#SvgjsPath4167" x="570" y="570" stroke="rgba(200, 197, 197, 1)"></use><use xlink:href="#SvgjsPath4168" x="570" y="630" stroke="rgba(200, 197, 197, 1)"></use><use xlink:href="#SvgjsPath4166" x="570" y="690" stroke="rgba(200, 197, 197, 1)"></use><use xlink:href="#SvgjsPath4165" x="630" y="30" stroke="rgba(200, 197, 197, 1)"></use><use xlink:href="#SvgjsPath4168" x="630" y="90" stroke="rgba(200, 197, 197, 1)"></use><use xlink:href="#SvgjsPath4167" x="630" y="150" stroke="rgba(200, 197, 197, 1)"></use><use xlink:href="#SvgjsPath4166" x="630" y="210" stroke="rgba(200, 197, 197, 1)"></use><use xlink:href="#SvgjsPath4165" x="630" y="270" stroke="rgba(200, 197, 197, 1)"></use><use xlink:href="#SvgjsPath4165" x="630" y="330" stroke="rgba(200, 197, 197, 1)"></use><use xlink:href="#SvgjsPath4166" x="630" y="390" stroke="rgba(200, 197, 197, 1)"></use><use xlink:href="#SvgjsPath4166" x="630" y="450" stroke="rgba(200, 197, 197, 1)"></use><use xlink:href="#SvgjsPath4168" x="630" y="510" stroke="rgba(200, 197, 197, 1)"></use><use xlink:href="#SvgjsPath4165" x="630" y="570" stroke="rgba(200, 197, 197, 1)"></use><use xlink:href="#SvgjsPath4166" x="630" y="630" stroke="rgba(200, 197, 197, 1)"></use><use xlink:href="#SvgjsPath4164" x="630" y="690" stroke="rgba(200, 197, 197, 1)"></use><use xlink:href="#SvgjsPath4164" x="690" y="30" stroke="rgba(200, 197, 197, 1)"></use><use xlink:href="#SvgjsPath4166" x="690" y="90" stroke="rgba(200, 197, 197, 1)"></use><use xlink:href="#SvgjsPath4166" x="690" y="150" stroke="rgba(200, 197, 197, 1)"></use><use xlink:href="#SvgjsPath4166" x="690" y="210" stroke="rgba(200, 197, 197, 1)"></use><use xlink:href="#SvgjsPath4165" x="690" y="270" stroke="rgba(200, 197, 197, 1)"></use><use xlink:href="#SvgjsPath4166" x="690" y="330" stroke="rgba(200, 197, 197, 1)"></use><use xlink:href="#SvgjsPath4166" x="690" y="390" stroke="rgba(200, 197, 197, 1)"></use><use xlink:href="#SvgjsPath4166" x="690" y="450" stroke="rgba(200, 197, 197, 1)"></use><use xlink:href="#SvgjsPath4165" x="690" y="510" stroke="rgba(200, 197, 197, 1)"></use><use xlink:href="#SvgjsPath4164" x="690" y="570" stroke="rgba(200, 197, 197, 1)"></use><use xlink:href="#SvgjsPath4164" x="690" y="630" stroke="rgba(200, 197, 197, 1)"></use><use xlink:href="#SvgjsPath4166" x="690" y="690" stroke="rgba(200, 197, 197, 1)"></use></symbol></svg>